<svg width="192" height="192" viewBox="0 0 64 64" xml:space="preserve" xmlns="http://www.w3.org/2000/svg"><path d="M53.5 46.2H36.8v-5.1h3.6c3.7 0 6.8-2.6 7.5-6.1h1.4c2.6 0 2.6-4 0-4H14.7c-2.6 0-2.6 4 0 4h1.4c.7 3.5 3.8 6.1 7.5 6.1h3.6v5.1H10.5c-2.6 0-2.6 4 0 4h2.1c.7 4.3 4.4 7.6 9 7.6h20.8c4.5 0 8.2-3.3 9-7.6h2.1c2.6 0 2.6-4 0-4zM20.3 35h23.4c-.6 1.2-1.9 2.1-3.3 2.1H23.6c-1.4 0-2.7-.9-3.3-2.1zm10.9 6.1h1.6v5.1h-1.6v-5.1zm11.2 12.7H21.6c-2.3 0-4.2-1.5-4.9-3.6h30.6c-.7 2.1-2.6 3.6-4.9 3.6zM15.9 12.7c1.3-1.2 3-2 4.8-2.2 1.7-.2 3.3.1 4.7.9 1.1.6 2.1 1.4 2.8 2.4-3.6-1.6-7.7-.9-10.7 1.7-.8.7-.7 2.1 0 2.8.8.8 2 .7 2.8 0 0 0 .2-.2.3-.2.1-.1.3-.2.4-.3.3-.2.5-.3.8-.4.1 0 .3-.1.3-.1.2-.1.4-.1.6-.2.2 0 .3-.1.5-.1h1.9c.3.1.7.2 1 .3h.1c.2.1.3.1.5.2.3.1.5.3.8.5h.1c.1.1.3.2.4.3.2.2.4.4.6.7l.1.1v.1c.1.1.2.2.2.4 0 .1.1.1.1.2-2.4-.8-5-.2-6.9 1.5-.8.7-.8 2.1 0 2.8.8.8 2 .7 2.8 0l.1-.1c.1-.1.2-.1.2-.1s.4-.2.5-.3h.1c.1 0 .2-.1.4-.1.1 0 .2 0 .3-.1h.8c.2 0 .4.1.6.2.1 0 .1.1.2.1.2.1.3.2.5.3.1 0 .1.1.2.1l.4.4c0 .1.1.1.1.2.1.2.2.3.3.5 0 .1.1.2.1.2 0 .1 0 .2.1.3v.3-.1.3c0 1 .9 2 2 2s2-.9 2-2v-.8c0-.1 0-.2.1-.3 0-.1.1-.2.1-.3 0-.1.1-.4 0-.1-.1.3 0 0 .1-.1s.1-.2.2-.3c0 0 0-.1.1-.1l.1-.1c.1-.1.3-.2.4-.4.1 0 .1-.1.2-.1s.2-.1.2-.1h.1c.1 0 .2-.1.3-.1h1.1c.1 0 .2 0 .3.1.1 0 .2 0 .2.1h-.1s.1 0 .1.1c0 0 .1 0 .1.1.1 0 .2.1.2.1.1 0 .1.1.2.1l.4.4c.7.8 2.1.8 2.8 0 .8-.8.8-2 0-2.8-1.6-1.7-4.2-2.5-6.5-1.8h-.1v-.1c.1-.2.2-.3.3-.5 0 0 .2-.2.2-.3.1-.1.2-.2.2-.3l.6-.6s.2-.2.3-.2c.1-.1.2-.2.4-.2.1-.1.2-.1.4-.2l.2-.1c.1 0 .2-.1.2-.1.2-.1.3-.1.5-.1.1 0 .3-.1.4-.1h1.8c.1 0 .3.1.4.1.1 0 .3.1.4.1 0 0 .2.1.3.1l.6.3c.1.1.3.2.4.3.3.2.5.5.7.7.7.8 2.1.8 2.8 0 .8-.8.8-2 0-2.8-2.3-2.5-5.9-3.5-9.1-2.6-.4.1-.8.3-1.1.4.2-.3.4-.5.6-.7 1.1-1.1 2.3-1.9 3.7-2.3 1.3-.3 2.6-.3 3.9 0 1.4.4 2.6 1.2 3.7 2.3 1.8 1.9 4.6-.9 2.8-2.8-2.9-3.2-7.5-4.5-11.7-3.3-2.9.8-5.2 2.7-6.7 5.1-1.1-1.6-2.6-3-4.5-3.9-4.7-2.4-10.3-1.5-14.2 2-.8.7-.7 2.1 0 2.8 1 .7 2.2.6 3-.1zm19.9 10.5c.1 0 .1 0 0 0 .4 0 .2 0 0 0zm0 0s-.1 0 0 0c-.1 0 0 0 0 0zm6.3-5.5c0 .1 0 .1 0 0z"/></svg>