<svg width="14" height="14" viewBox="0 0 14 14" fill="none" xmlns="http://www.w3.org/2000/svg">
<path fill-rule="evenodd" clip-rule="evenodd" d="M5.57129 12.071C5.57129 12.8995 6.24286 13.571 7.07129 13.571C7.89972 13.571 8.57129 12.8995 8.57129 12.071V8.57104H12.0713C12.8997 8.57104 13.5713 7.89947 13.5713 7.07104C13.5713 6.24262 12.8997 5.57104 12.0713 5.57104H8.57129V2.07104C8.57129 1.24262 7.89972 0.571045 7.07129 0.571045C6.24286 0.571045 5.57129 1.24262 5.57129 2.07104V5.57104H2.07129C1.24286 5.57104 0.571289 6.24262 0.571289 7.07104C0.571289 7.89947 1.24286 8.57104 2.07129 8.57104H5.57129V12.071Z" fill="white"/>
</svg>
