<svg width="28" height="28" viewBox="0 0 28 28" fill="none" xmlns="http://www.w3.org/2000/svg">
<path d="M3.39297 11.5C2.01225 11.5 0.892965 12.6193 0.892948 14C0.892965 15.3807 2.01225 16.5 3.39297 16.5L11.4996 16.5L11.4996 24.6067C11.4996 25.9873 12.6189 27.1067 13.9996 27.1066C15.3803 27.1066 16.4996 25.9873 16.4996 24.6066L16.4996 16.5H24.6062C25.9869 16.5 27.1062 15.3806 27.1062 14C27.1062 12.6194 25.9869 11.5 24.6062 11.5H16.4996L16.4996 3.39338C16.4996 2.0127 15.3803 0.893417 13.9996 0.893364C12.6189 0.893329 11.4996 2.01268 11.4996 3.39335L11.4996 11.5L3.39297 11.5Z" fill="#1AEFEB"/>
</svg>
