<svg width="64" height="64" viewBox="0 0 64 64" fill="none" xmlns="http://www.w3.org/2000/svg">
<path d="M2 29.7903L0.937709 28.7312L0.0844685 29.5871L0.739204 30.6029L2 29.7903ZM8.25056 39.4878L6.98977 40.3005L7.77391 41.517L9.01769 40.7768L8.25056 39.4878ZM16.0099 34.8699H17.5099V32.2317L15.2427 33.5809L16.0099 34.8699ZM16.0099 62H14.5099V63.5H16.0099V62ZM15.3633 16.9756L14.5801 15.6963L14.5801 15.6963L15.3633 16.9756ZM21.5061 16.052L23.0022 15.9446L22.9022 14.552L21.5061 14.552L21.5061 16.052ZM19.674 16.052L19.674 14.552L19.6582 14.552L19.6423 14.5524L19.674 16.052ZM24.6313 22.8634L25.8234 21.953L25.8234 21.953L24.6313 22.8634ZM32.1056 28.0572C32.9338 28.0361 33.588 27.3476 33.5669 26.5195C33.5457 25.6913 32.8572 25.0371 32.0291 25.0582L32.1056 28.0572ZM62 29.7903L63.2608 30.6029L63.9155 29.5871L63.0623 28.7312L62 29.7903ZM55.7494 39.4878L54.9823 40.7768L56.2261 41.517L57.0102 40.3005L55.7494 39.4878ZM47.9901 34.8699L48.7573 33.5809L46.4901 32.2317V34.8699H47.9901ZM47.9901 62V63.5H49.4901V62H47.9901ZM48.6367 16.9756L47.8536 18.255L47.8536 18.255L48.6367 16.9756ZM42.4939 16.052L42.4939 14.552L41.0978 14.552L40.9978 15.9446L42.4939 16.052ZM44.326 16.052L44.3577 14.5524L44.3418 14.552L44.326 14.552L44.326 16.052ZM39.3687 22.8634L38.1766 21.953L38.1766 21.953L39.3687 22.8634ZM22.2909 14.7751H20.7909V17.7751H22.2909V14.7751ZM34.2909 17.7751C35.1193 17.7751 35.7909 17.1035 35.7909 16.2751C35.7909 15.4467 35.1193 14.7751 34.2909 14.7751V17.7751ZM34.0455 12.0372C34.0455 11.2087 33.3739 10.5372 32.5455 10.5372C31.717 10.5372 31.0455 11.2087 31.0455 12.0372H34.0455ZM31.0455 15.829C31.0455 16.6574 31.717 17.329 32.5455 17.329C33.3739 17.329 34.0455 16.6574 34.0455 15.829H31.0455ZM32.4604 13.5372C33.2888 13.5372 33.9604 12.8656 33.9604 12.0372C33.9604 11.2087 33.2888 10.5372 32.4604 10.5372V13.5372ZM29.0863 10.8121L30.0849 9.69285L30.0849 9.69285L29.0863 10.8121ZM27.4384 8.03542L28.8894 7.65519L28.8894 7.65519L27.4384 8.03542ZM28.6938 3.46199L27.5872 2.44936L27.5872 2.44936L28.6938 3.46199ZM33.5591 2.15529L33.2211 3.61671L33.2211 3.61671L33.5591 2.15529ZM36.6979 5.25869L35.2752 5.73415L35.2752 5.73415L36.6979 5.25869ZM35.3548 7.38207C35.3548 8.2105 36.0264 8.88207 36.8548 8.88207C37.6832 8.88207 38.3548 8.2105 38.3548 7.38207H35.3548ZM29.2913 50.1145C28.7121 50.7067 28.7225 51.6564 29.3147 52.2357C29.9069 52.815 30.8566 52.8045 31.4359 52.2123L29.2913 50.1145ZM39.3812 44.0898C39.9605 43.4976 39.9501 42.5479 39.3578 41.9686C38.7656 41.3893 37.8159 41.3998 37.2367 41.992L39.3812 44.0898ZM31.6913 55.6907C31.1121 56.283 31.1225 57.2326 31.7147 57.8119C32.3069 58.3912 33.2566 58.3807 33.8359 57.7885L31.6913 55.6907ZM41.7812 49.666C42.3605 49.0738 42.3501 48.1241 41.7578 47.5448C41.1656 46.9655 40.2159 46.976 39.6367 47.5682L41.7812 49.666ZM0.739204 30.6029L6.98977 40.3005L9.51136 38.6752L3.2608 28.9776L0.739204 30.6029ZM9.01769 40.7768L16.777 36.1589L15.2427 33.5809L7.48343 38.1988L9.01769 40.7768ZM14.5801 15.6963C14.2595 15.8926 13.8098 16.2727 13.3633 16.6668C12.8776 17.0955 12.2777 17.648 11.6111 18.2748C10.2765 19.53 8.64466 21.1113 7.06612 22.6578C5.48633 24.2055 3.95443 25.7237 2.81786 26.8545C2.24946 27.4201 1.77968 27.889 1.45189 28.2166C1.28799 28.3805 1.15958 28.509 1.07208 28.5966C1.02833 28.6404 0.994805 28.674 0.972184 28.6967C0.960873 28.708 0.952289 28.7166 0.946515 28.7224C0.943628 28.7253 0.941443 28.7275 0.939972 28.729C0.939236 28.7297 0.938679 28.7303 0.938301 28.7306C0.938112 28.7308 0.937964 28.731 0.93787 28.7311C0.937767 28.7312 0.937709 28.7312 2 29.7903C3.06229 30.8493 3.06232 30.8493 3.0624 30.8492C3.06249 30.8491 3.06261 30.849 3.06278 30.8488C3.06312 30.8485 3.06365 30.8479 3.06435 30.8472C3.06575 30.8458 3.06786 30.8437 3.07068 30.8409C3.07631 30.8352 3.08476 30.8268 3.09592 30.8156C3.11825 30.7932 3.15148 30.7599 3.19492 30.7164C3.2818 30.6294 3.40955 30.5015 3.57275 30.3384C3.89915 30.0122 4.36728 29.5449 4.93382 28.9812C6.06711 27.8536 7.59315 26.3413 9.16557 24.8008C10.7393 23.259 12.354 21.6944 13.6664 20.4603C14.3233 19.8424 14.8971 19.3144 15.3485 18.916C15.5745 18.7165 15.7624 18.5562 15.9102 18.4361C15.9839 18.3762 16.0426 18.3306 16.0873 18.2973C16.1352 18.2617 16.1525 18.2512 16.1464 18.255L14.5801 15.6963ZM21.5061 14.552L19.674 14.552L19.674 17.552L21.5061 17.552L21.5061 14.552ZM19.6423 14.5524C18.7128 14.572 16.4966 14.5232 14.5801 15.6963L16.1464 18.255C17.2475 17.5809 18.5906 17.5753 19.7057 17.5517L19.6423 14.5524ZM21.5061 16.052C20.0099 16.1595 20.01 16.1601 20.01 16.1608C20.01 16.161 20.0101 16.1617 20.0101 16.1622C20.0102 16.1631 20.0103 16.1641 20.0103 16.1651C20.0105 16.1672 20.0107 16.1695 20.0109 16.1719C20.0112 16.1768 20.0117 16.1825 20.0122 16.1888C20.0133 16.2016 20.0148 16.2172 20.0166 16.2358C20.0203 16.2729 20.0257 16.3214 20.0334 16.3808C20.0488 16.4997 20.0734 16.6624 20.1123 16.8643C20.1901 17.2681 20.325 17.8295 20.5576 18.5125C21.0233 19.8804 21.8781 21.7299 23.4393 23.7739L25.8234 21.953C24.4748 20.1872 23.767 18.631 23.3975 17.5457C23.2125 17.0021 23.1117 16.5749 23.0581 16.2969C23.0314 16.1579 23.0164 16.0562 23.0086 15.9961C23.0047 15.966 23.0026 15.9463 23.0018 15.9376C23.0013 15.9332 23.0012 15.9316 23.0013 15.9327C23.0013 15.9333 23.0014 15.9346 23.0016 15.9365C23.0017 15.9375 23.0018 15.9387 23.0019 15.94C23.0019 15.9407 23.002 15.9414 23.002 15.9422C23.0021 15.9426 23.0021 15.9432 23.0021 15.9434C23.0022 15.944 23.0022 15.9446 21.5061 16.052ZM23.4393 23.7739C26.5828 27.8898 31.3052 28.0534 31.9898 28.058L32.0102 25.0581C31.5498 25.0549 28.0827 24.9111 25.8234 21.953L23.4393 23.7739ZM31.9898 28.058C32.0204 28.0582 32.0455 28.0581 32.0649 28.0579C32.0746 28.0578 32.0829 28.0577 32.0897 28.0576C32.0931 28.0575 32.0961 28.0575 32.0987 28.0574C32.1001 28.0574 32.1013 28.0574 32.1025 28.0573C32.103 28.0573 32.1036 28.0573 32.1041 28.0573C32.1044 28.0573 32.1046 28.0573 32.1049 28.0573C32.105 28.0573 32.1051 28.0573 32.1053 28.0573C32.1053 28.0573 32.1054 28.0573 32.1054 28.0573C32.1055 28.0573 32.1055 28.0572 32.1055 28.0572C32.1056 28.0572 32.1056 28.0572 32.0674 26.5577C32.0291 25.0582 32.0291 25.0582 32.0292 25.0582C32.0292 25.0582 32.0292 25.0582 32.0293 25.0582C32.0293 25.0582 32.0294 25.0582 32.0294 25.0582C32.0296 25.0582 32.0297 25.0582 32.0298 25.0582C32.03 25.0582 32.0302 25.0582 32.0305 25.0582C32.0309 25.0582 32.0313 25.0582 32.0317 25.0582C32.0325 25.0581 32.0332 25.0581 32.0338 25.0581C32.035 25.0581 32.0359 25.0581 32.0364 25.0581C32.0375 25.058 32.0372 25.058 32.0356 25.0581C32.0323 25.0581 32.0238 25.0582 32.0102 25.0581L31.9898 28.058ZM60.7392 28.9776L54.4886 38.6752L57.0102 40.3005L63.2608 30.6029L60.7392 28.9776ZM56.5166 38.1988L48.7573 33.5809L47.223 36.1589L54.9823 40.7768L56.5166 38.1988ZM47.8536 18.255C47.8475 18.2512 47.8648 18.2617 47.9127 18.2973C47.9574 18.3306 48.0161 18.3762 48.0898 18.4361C48.2376 18.5562 48.4255 18.7165 48.6515 18.916C49.1029 19.3144 49.6767 19.8424 50.3336 20.4603C51.646 21.6944 53.2607 23.259 54.8344 24.8008C56.4069 26.3413 57.9329 27.8536 59.0662 28.9812C59.6327 29.5449 60.1009 30.0122 60.4273 30.3384C60.5904 30.5015 60.7182 30.6294 60.8051 30.7164C60.8485 30.7599 60.8817 30.7932 60.9041 30.8156C60.9152 30.8268 60.9237 30.8352 60.9293 30.8409C60.9321 30.8437 60.9343 30.8458 60.9357 30.8472C60.9364 30.8479 60.9369 30.8485 60.9372 30.8488C60.9374 30.849 60.9375 30.8491 60.9376 30.8492C60.9377 30.8493 60.9377 30.8493 62 29.7903C63.0623 28.7312 63.0622 28.7312 63.0621 28.7311C63.062 28.731 63.0619 28.7308 63.0617 28.7306C63.0613 28.7303 63.0608 28.7297 63.06 28.729C63.0586 28.7275 63.0564 28.7253 63.0535 28.7224C63.0477 28.7166 63.0391 28.708 63.0278 28.6967C63.0052 28.674 62.9717 28.6404 62.9279 28.5966C62.8404 28.509 62.712 28.3805 62.5481 28.2166C62.2203 27.889 61.7505 27.4201 61.1821 26.8545C60.0456 25.7237 58.5137 24.2055 56.9339 22.6578C55.3553 21.1113 53.7235 19.53 52.3889 18.2748C51.7223 17.648 51.1224 17.0955 50.6367 16.6668C50.1902 16.2727 49.7405 15.8926 49.4199 15.6963L47.8536 18.255ZM42.4939 17.552L44.326 17.552L44.326 14.552L42.4939 14.552L42.4939 17.552ZM44.2943 17.5517C45.4094 17.5753 46.7525 17.5809 47.8536 18.255L49.4199 15.6963C47.5034 14.5232 45.2872 14.572 44.3577 14.5524L44.2943 17.5517ZM42.4939 16.052C40.9978 15.9446 40.9978 15.944 40.9979 15.9434C40.9979 15.9432 40.9979 15.9426 40.998 15.9422C40.998 15.9414 40.9981 15.9407 40.9981 15.94C40.9982 15.9387 40.9983 15.9375 40.9984 15.9365C40.9986 15.9346 40.9987 15.9333 40.9987 15.9327C40.9988 15.9316 40.9987 15.9332 40.9982 15.9376C40.9974 15.9463 40.9953 15.966 40.9914 15.9961C40.9836 16.0562 40.9686 16.1579 40.9419 16.2969C40.8883 16.5749 40.7875 17.0021 40.6025 17.5457C40.233 18.631 39.5252 20.1872 38.1766 21.953L40.5607 23.7739C42.1219 21.7299 42.9767 19.8804 43.4424 18.5125C43.675 17.8295 43.8099 17.2681 43.8877 16.8643C43.9266 16.6624 43.9512 16.4997 43.9666 16.3808C43.9743 16.3214 43.9797 16.2729 43.9834 16.2358C43.9852 16.2172 43.9867 16.2016 43.9878 16.1888C43.9883 16.1825 43.9888 16.1768 43.9891 16.1719C43.9893 16.1695 43.9895 16.1672 43.9897 16.1651C43.9897 16.1641 43.9898 16.1631 43.9899 16.1622C43.9899 16.1617 43.99 16.161 43.99 16.1608C43.99 16.1601 43.9901 16.1595 42.4939 16.052ZM38.1766 21.953C35.9173 24.9111 32.4502 25.0549 31.9898 25.0581L32.0102 28.058C32.6948 28.0534 37.4172 27.8898 40.5607 23.7739L38.1766 21.953ZM31.9898 25.0581C31.9762 25.0582 31.9677 25.0581 31.9644 25.0581C31.9628 25.058 31.9625 25.058 31.9636 25.0581C31.9641 25.0581 31.965 25.0581 31.9662 25.0581C31.9668 25.0581 31.9675 25.0581 31.9683 25.0582C31.9687 25.0582 31.9691 25.0582 31.9695 25.0582C31.9698 25.0582 31.97 25.0582 31.9702 25.0582C31.9703 25.0582 31.9704 25.0582 31.9706 25.0582C31.9706 25.0582 31.9707 25.0582 31.9707 25.0582C31.9708 25.0582 31.9708 25.0582 31.9708 25.0582C31.9709 25.0582 31.9709 25.0582 31.9326 26.5577C31.8944 28.0572 31.8944 28.0572 31.8945 28.0572C31.8945 28.0572 31.8945 28.0573 31.8946 28.0573C31.8946 28.0573 31.8947 28.0573 31.8947 28.0573C31.8949 28.0573 31.895 28.0573 31.8951 28.0573C31.8954 28.0573 31.8956 28.0573 31.8959 28.0573C31.8964 28.0573 31.897 28.0573 31.8975 28.0573C31.8987 28.0574 31.8999 28.0574 31.9013 28.0574C31.9039 28.0575 31.9069 28.0575 31.9103 28.0576C31.9171 28.0577 31.9254 28.0578 31.9351 28.0579C31.9545 28.0581 31.9796 28.0582 32.0102 28.058L31.9898 25.0581ZM14.5099 34.8699V62H17.5099V34.8699H14.5099ZM46.4901 34.8699V62H49.4901V34.8699H46.4901ZM22.2909 17.7751H34.2909V14.7751H22.2909V17.7751ZM31.0455 12.0372V15.829H34.0455V12.0372H31.0455ZM32.4604 10.5372C32.3101 10.5372 31.8505 10.4721 31.2892 10.2896C30.7246 10.1061 30.2933 9.87884 30.0849 9.69285L28.0877 11.9315C28.7504 12.5227 29.64 12.908 30.3616 13.1426C31.0865 13.3783 31.8784 13.5372 32.4604 13.5372V10.5372ZM30.0849 9.69285C29.2895 8.98327 29.0843 8.39881 28.8894 7.65519L25.9874 8.41565C26.2634 9.46874 26.6861 10.681 28.0877 11.9315L30.0849 9.69285ZM28.8894 7.65519C28.7439 7.09986 28.6677 5.71253 29.8004 4.47461L27.5872 2.44936C25.5812 4.64152 25.6621 7.17427 25.9874 8.41565L28.8894 7.65519ZM29.8004 4.47461C30.709 3.48176 32.0844 3.35382 33.2211 3.61671L33.8971 0.693868C32.2088 0.303396 29.5185 0.338823 27.5872 2.44936L29.8004 4.47461ZM33.2211 3.61671C34.0407 3.80628 34.8653 4.50765 35.2752 5.73415L38.1205 4.78323C37.4386 2.743 35.9023 1.15766 33.8971 0.693868L33.2211 3.61671ZM35.2752 5.73415C35.3867 6.0678 35.412 6.36361 35.4088 6.60468C35.4072 6.72714 35.3983 6.8377 35.3874 6.94548C35.3847 6.97271 35.3731 7.08204 35.3696 7.11847C35.3648 7.16737 35.3548 7.27139 35.3548 7.38207H38.3548C38.3548 7.51663 38.5763 6.14703 38.1205 4.78323L35.2752 5.73415ZM31.4359 52.2123L39.3812 44.0898L37.2367 41.992L29.2913 50.1145L31.4359 52.2123ZM33.8359 57.7885L41.7812 49.666L39.6367 47.5682L31.6913 55.6907L33.8359 57.7885ZM16.0099 63.5H47.9901V60.5H16.0099V63.5Z" fill="#F4997C"/>
</svg>
