<svg width="10" height="10" viewBox="0 0 10 10" fill="none" xmlns="http://www.w3.org/2000/svg">
<path d="M2.13389 0.366114C1.64573 -0.122038 0.854278 -0.122038 0.366114 0.366114C-0.122038 0.854278 -0.122038 1.64573 0.366114 2.13389L3.23226 5.00002L0.366114 7.86615C-0.122038 8.35428 -0.122038 9.14578 0.366114 9.6339C0.854278 10.122 1.64573 10.122 2.13389 9.6339L5.00002 6.76777L7.86615 9.6339C8.35428 10.122 9.14578 10.122 9.6339 9.6339C10.122 9.14578 10.122 8.35428 9.6339 7.86615L6.76777 5.00002L9.6339 2.13389C10.122 1.64573 10.122 0.854278 9.6339 0.366114C9.14578 -0.122038 8.35428 -0.122038 7.86615 0.366114L5.00002 3.23226L2.13389 0.366114Z" fill="white"/>
</svg>
