<svg width="20" height="20" viewBox="0 0 20 20" fill="none" xmlns="http://www.w3.org/2000/svg">
<path d="M4.26779 0.732227C3.29146 -0.244076 1.70856 -0.244076 0.732227 0.732227C-0.244076 1.70856 -0.244076 3.29146 0.732227 4.26779L6.46452 10L0.732227 15.7323C-0.244076 16.7086 -0.244076 18.2916 0.732227 19.2678C1.70856 20.2441 3.29146 20.2441 4.26779 19.2678L10 13.5355L15.7323 19.2678C16.7086 20.2441 18.2916 20.2441 19.2678 19.2678C20.2441 18.2916 20.2441 16.7086 19.2678 15.7323L13.5355 10L19.2678 4.26779C20.2441 3.29146 20.2441 1.70856 19.2678 0.732227C18.2916 -0.244076 16.7086 -0.244076 15.7323 0.732227L10 6.46452L4.26779 0.732227Z" fill="#ED2424"/>
</svg>
