<svg width="60" height="52" viewBox="0 0 60 52" fill="none" xmlns="http://www.w3.org/2000/svg">
<path d="M59.7337 10.6654L56.4163 6.20427L56.5847 5.44683C56.6769 5.03245 56.4844 4.60698 56.1125 4.4024L50.9331 1.55379C48.9452 0.460442 46.4939 0.872153 44.9726 2.55556L35.9477 12.5406C35.2273 13.3376 34.3104 13.9467 33.2964 14.3015C30.3059 15.3483 27.2103 15.9692 24.0954 16.1469C21.2777 16.3076 18.4391 16.2713 15.6592 16.039C15.4458 16.0211 15.233 16.0183 15.0215 16.0271C14.5088 14.2082 15.3518 12.089 16.2075 10.5596C17.3144 8.58091 18.707 7.09419 18.7205 7.08005C19.0268 6.7561 19.0682 6.2635 18.8205 5.89281C18.573 5.52237 18.1018 5.37244 17.6855 5.53116C15.3849 6.40961 13.4708 7.97238 12.1498 10.0506C10.829 12.1287 10.2264 14.5252 10.4077 16.9811L10.5292 18.6268C9.29716 19.9196 8.08011 21.3197 7.18879 22.375C6.24385 23.4937 5.82207 24.9665 6.03175 26.4159L6.6367 30.5953C6.94383 32.7176 6.08716 34.8589 4.4007 36.1839L1.43465 38.5144C0.416963 39.314 -0.123153 40.6084 0.0238505 41.8941L0.746892 49.1315C0.854788 50.2109 1.754 51.0247 2.8387 51.0247H4.59662C5.58628 51.0247 6.45161 50.3218 6.65428 49.3533L7.67783 44.4646L10.4257 43.2649C14.5852 41.4487 17.7251 37.9154 19.0399 33.5711L19.4354 32.2637C19.8044 31.0436 20.9409 30.2492 22.1975 30.3322C23.465 30.4156 24.758 30.7627 26.0405 31.364C27.062 31.8427 27.9472 32.3249 28.7283 32.7503C30.7474 33.85 32.4158 34.757 34.6375 34.5466C33.7286 40.4759 35.362 46.3099 36.264 48.9194C36.6745 50.107 37.7475 50.9353 38.9973 51.0293C39.2114 51.0454 39.422 51.0535 39.6281 51.0535C39.8701 51.0535 40.1058 51.0424 40.3332 51.0201C41.9352 50.8636 43.1433 49.5137 43.1433 47.8802C43.1433 32.524 48.0664 16.6667 49.3848 12.6965C49.3855 12.6966 49.3862 12.6969 49.3869 12.6971L50.1618 12.9118C50.8481 13.1018 51.3947 13.6379 51.5884 14.3108C51.9732 15.6484 52.8116 16.6447 54.0128 17.1923C55.1219 17.6979 56.2293 17.6877 56.7912 17.6369C57.0691 17.6117 57.3221 17.4662 57.4838 17.2386C57.6454 17.011 57.6993 16.7243 57.6315 16.4535C57.6201 16.4076 57.5699 16.1405 57.7071 15.3843C57.9101 14.2672 58.5317 13.2654 59.4575 12.5627C59.4608 12.5602 59.4641 12.5578 59.4673 12.5553C60.0554 12.1069 60.1751 11.2592 59.7337 10.6654ZM50.0123 3.22815L50.4328 3.45936L49.8111 5.3639L48.0827 2.9023C48.7252 2.79147 49.4043 2.89377 50.0123 3.22815ZM13.7625 11.0755C13.8223 10.9817 13.8833 10.8891 13.9457 10.7979C13.1433 12.5603 12.6505 14.5717 13.1576 16.4642C12.8656 16.5941 12.585 16.7507 12.3203 16.9344L12.3134 16.8403C12.1627 14.7976 12.6638 12.8041 13.7625 11.0755ZM55.8269 15.0429C55.7829 15.2853 55.7506 15.5083 55.7298 15.714C54.9015 15.6022 53.8259 15.1769 53.4244 13.7823C53.0483 12.4756 51.9936 11.4364 50.6717 11.0703L49.8968 10.8556C49.0833 10.6304 48.4077 10.0293 48.0892 9.24764C47.8902 8.75899 47.3325 8.52409 46.8441 8.72332C46.3554 8.92243 46.1206 9.47987 46.3198 9.96852C46.612 10.6858 47.0826 11.3123 47.6706 11.798C46.4807 15.3368 41.2325 31.8572 41.2325 47.8802C41.2325 48.5257 40.766 49.058 40.1472 49.1185C39.8354 49.149 39.4966 49.1507 39.1409 49.124C38.6516 49.0872 38.2312 48.7618 38.07 48.2952C34.8615 39.0129 36.7536 32.8389 37.7162 30.6152C37.9258 30.131 37.703 29.5686 37.219 29.3589C36.7345 29.1491 36.1721 29.3721 35.9627 29.8563C35.5789 30.743 35.2766 31.6472 35.0427 32.5573C33.1 32.9541 31.8205 32.2585 29.6425 31.0723C28.8376 30.6339 27.9254 30.137 26.8518 29.6338C25.3527 28.9312 23.8292 28.5247 22.3234 28.4255C20.1751 28.2846 18.2349 29.6346 17.6068 31.7104L17.2113 33.0177C16.0589 36.8253 13.3071 39.922 9.66135 41.5137L6.46168 42.9107C6.17811 43.0346 5.97213 43.2878 5.90882 43.5905L4.78426 48.9618C4.76579 49.05 4.68694 49.1139 4.59675 49.1139H2.83882C2.7401 49.1139 2.65819 49.0398 2.64838 48.9415L1.92457 41.6965C1.92406 41.6913 1.92343 41.6861 1.92279 41.6808C1.84903 41.048 2.11438 40.4103 2.61539 40.0167L5.58144 37.6861C7.80356 35.9401 8.93271 33.1181 8.528 30.3215L7.92305 26.1421C7.79158 25.233 8.05604 24.3094 8.64863 23.6077C9.78657 22.2606 11.464 20.3412 12.9936 18.8467C13.6606 18.195 14.574 17.8654 15.5002 17.943C18.3691 18.1827 21.2974 18.2202 24.2044 18.0545C27.4974 17.8666 30.7688 17.2107 33.9277 16.1049C35.2426 15.6447 36.4314 14.8552 37.3655 13.8217L46.3904 3.8368C46.3931 3.83387 46.3959 3.83145 46.3985 3.82852L49.345 8.02499C49.5253 8.28206 49.8185 8.43135 50.1267 8.43135C50.1735 8.43135 50.2207 8.42792 50.268 8.42078C50.6258 8.36741 50.9228 8.11633 51.035 7.77239L52.137 4.39654L54.3052 5.58912L53.705 5.65969C53.1809 5.72135 52.806 6.19612 52.8678 6.72018C52.9249 7.20629 53.3376 7.56398 53.8153 7.56398C53.8526 7.56398 53.8904 7.56182 53.9282 7.55736L54.952 7.43685L57.8864 11.3831C56.8083 12.3477 56.0838 13.6287 55.8269 15.0429Z" fill="#87CBA2"/>
</svg>
