<svg width="62" height="37" viewBox="0 0 62 37" fill="none" xmlns="http://www.w3.org/2000/svg">
<path d="M6.11756 26.6098L1 23.0796V14.0539L5 5.80185L2.6 2.7073C12.2 0.99997 22.2 0.573187 27.8 1.42683C32.7137 2.17585 36.5874 3.99672 40.2 5.80185C43.8126 7.60697 47.1898 11.4751 49.7702 12.7645C52.3507 14.0539 57.2534 14.3117 59.3178 17.4063C61.3823 20.5009 61.0382 24.8847 60.8662 27.4634H55.7051M41.9121 27.4634L20.1379 27.4634M50.3506 12.9785L26.7998 12.474M26.7998 12.474L13.4675 12.1884L7.8 2.28049M26.7998 12.474L23.8 1.42683M26.7998 12.474L29.7974 23.513M29.7974 23.513L30.8701 27.4634M29.7974 23.513H41.2597M29.7974 23.513H22.039M1 14.822H7.23376L5.93506 19.2992H1M61 23.513H57.4M36.3247 16.1388H32.6883M19.961 16.1388H15.026M5.8 28.7439C5.8 32.7513 9.03474 36 13.025 36C17.0153 36 20.25 32.7513 20.25 28.7439C20.25 24.7365 17.0153 21.4878 13.025 21.4878C9.03474 21.4878 5.8 24.7365 5.8 28.7439ZM41.8 28.7439C41.8 32.7513 45.0347 36 49.025 36C53.0153 36 56.25 32.7513 56.25 28.7439C56.25 24.7365 53.0153 21.4878 49.025 21.4878C45.0347 21.4878 41.8 24.7365 41.8 28.7439Z" stroke="#1FBBFE" stroke-width="2" stroke-linejoin="round"/>
</svg>
