<svg width="20" height="22" viewBox="0 0 20 22" fill="none" xmlns="http://www.w3.org/2000/svg">
<path fill-rule="evenodd" clip-rule="evenodd" d="M15.2427 0.128234C14.2767 -0.122058 13.2439 -0.00296582 12.3717 0.459324C11.9849 0.664295 11.68 0.934996 11.402 1.22521C11.1379 1.50085 10.8445 1.85263 10.5045 2.26032L1.55612 12.9886L1.48911 13.0688L1.48872 13.0693C1.06835 13.5729 0.750529 13.9536 0.521609 14.3864C0.327783 14.7527 0.185697 15.1412 0.0989194 15.5419C-0.003594 16.0153 -0.00174203 16.4987 0.000714665 17.138L0.00109253 17.2398L0.00974769 19.7873L0.00984862 19.8202L0.00984872 19.8203C0.0103904 19.999 0.0110086 20.2029 0.0284941 20.3789C0.0479839 20.5751 0.0981005 20.8742 0.295064 21.1715C0.531839 21.5287 0.896891 21.7954 1.32473 21.9237C1.68064 22.0303 2.00288 22.0032 2.21098 21.9732C2.39701 21.9465 2.6078 21.8977 2.79272 21.8549L2.79466 21.8545L5.4716 21.2361L5.57727 21.2117L5.57791 21.2115C6.24089 21.0586 6.74216 20.9429 7.20786 20.735C7.60218 20.559 7.97037 20.3357 8.30314 20.0708C8.69634 19.7577 9.01395 19.3767 9.43398 18.8726L9.501 18.7922L18.4493 8.06406C18.7894 7.65638 19.0829 7.30461 19.3045 6.99796C19.5378 6.6751 19.7444 6.33257 19.863 5.93171C20.1304 5.02765 20.0032 4.06117 19.5092 3.24491C19.2901 2.88299 19.0008 2.59765 18.6908 2.33745C18.3966 2.09061 18.0212 1.8164 17.5862 1.49864L17.5847 1.49753L17.5212 1.4511L17.519 1.4495C17.0843 1.13195 16.7092 0.857955 16.382 0.650913C16.0371 0.432549 15.6711 0.239215 15.2427 0.128234ZM13.6134 2.51113C13.9042 2.35704 14.2483 2.31734 14.5704 2.40077C14.625 2.41494 14.732 2.4532 14.9705 2.60415C15.2183 2.76104 15.5262 2.98517 16.0025 3.33312C16.4789 3.68107 16.7859 3.9062 17.0088 4.09315C17.2231 4.27301 17.2887 4.36074 17.3167 4.40695C17.4814 4.67904 17.5238 5.00119 17.4346 5.30255C17.4195 5.35373 17.3787 5.45374 17.2173 5.67693C17.0496 5.9089 16.8102 6.19707 16.4383 6.64282L12.4659 3.74096C12.8377 3.29521 13.0783 3.00783 13.2781 2.79931C13.4703 2.5987 13.564 2.53731 13.6134 2.51113ZM10.9156 5.59974L14.888 8.50159L7.51476 17.3413C6.99854 17.9602 6.84353 18.1369 6.67053 18.2746C6.50413 18.4072 6.32004 18.5188 6.12287 18.6068C5.91787 18.6984 5.68218 18.7586 4.86768 18.9468L2.52843 19.4873L2.52077 17.2323C2.5181 16.4472 2.5233 16.2186 2.56841 16.0102C2.61179 15.8099 2.68284 15.6157 2.77975 15.4325C2.88053 15.242 3.0261 15.0583 3.54234 14.4394L10.9156 5.59974Z" fill="#1AEFEB"/>
</svg>
