<svg width="10" height="11" viewBox="0 0 10 11" fill="none" xmlns="http://www.w3.org/2000/svg">
<path fill-rule="evenodd" clip-rule="evenodd" d="M7.62137 0.0641172C7.13835 -0.0610289 6.62194 -0.00148291 6.18584 0.229662C5.99245 0.332148 5.84001 0.467498 5.70099 0.612605C5.56896 0.750425 5.42225 0.926316 5.25223 1.13016L0.778058 6.49428L0.744553 6.53442L0.744361 6.53465C0.534176 6.78643 0.375264 6.97679 0.260805 7.19319C0.163891 7.37635 0.0928487 7.5706 0.0494597 7.77097C-0.001797 8.00766 -0.000871014 8.24935 0.000357333 8.56898L0.000546265 8.61992L0.00487385 9.89366L0.00492431 9.91011L0.00492436 9.91013C0.00519521 9.99949 0.00550429 10.1015 0.014247 10.1895C0.0239919 10.2876 0.0490502 10.4371 0.147532 10.5857C0.26592 10.7644 0.448446 10.8977 0.662367 10.9618C0.84032 11.0151 1.00144 11.0016 1.10549 10.9866C1.1985 10.9733 1.3039 10.9489 1.39636 10.9275L1.39733 10.9272L2.7358 10.618L2.78864 10.6058L2.78895 10.6058C3.12044 10.5293 3.37108 10.4715 3.60393 10.3675C3.80109 10.2795 3.98518 10.1678 4.15157 10.0354C4.34817 9.87886 4.50697 9.68833 4.71699 9.43632L4.7505 9.39612L9.22465 4.03203C9.39472 3.82819 9.54143 3.65231 9.65224 3.49898C9.7689 3.33755 9.87221 3.16628 9.93148 2.96586C10.0652 2.51382 10.0016 2.03058 9.7546 1.62246C9.64505 1.4415 9.50042 1.29882 9.3454 1.16873C9.1983 1.04531 9.0106 0.908198 8.7931 0.749322L8.79233 0.748763L8.76058 0.725548L8.75949 0.72475C8.54213 0.565975 8.35458 0.428977 8.19101 0.325457C8.01853 0.216274 7.83554 0.119607 7.62137 0.0641172ZM6.80669 1.25557C6.95208 1.17852 7.12417 1.15867 7.28518 1.20038C7.31252 1.20747 7.366 1.2266 7.48524 1.30207C7.60915 1.38052 7.7631 1.49258 8.00127 1.66656C8.23945 1.84053 8.39296 1.9531 8.50439 2.04658C8.61154 2.13651 8.64436 2.18037 8.65835 2.20347C8.74068 2.33952 8.76191 2.5006 8.71731 2.65127C8.70975 2.67686 8.68934 2.72687 8.60864 2.83847C8.5248 2.95445 8.40512 3.09854 8.21916 3.32141L6.23296 1.87048C6.41885 1.64761 6.53916 1.50391 6.63907 1.39965C6.73513 1.29935 6.782 1.26865 6.80669 1.25557ZM5.45778 2.79987L7.44398 4.2508L3.75738 8.67067C3.49927 8.9801 3.42176 9.06847 3.33526 9.13732C3.25206 9.20358 3.16002 9.25941 3.06144 9.30339C2.95894 9.34919 2.84109 9.37932 2.43384 9.4734L1.26421 9.74363L1.26038 8.61614C1.25905 8.22359 1.26165 8.10929 1.28421 8.00512C1.30589 7.90496 1.34142 7.80787 1.38988 7.71626C1.44026 7.621 1.51305 7.52915 1.77117 7.21972L5.45778 2.79987Z" fill="white"/>
</svg>
