<svg width="60" height="46" viewBox="0 0 60 46" fill="none" xmlns="http://www.w3.org/2000/svg">
<path d="M18.2047 46L17.8293 45.9358C8.12 44.2568 2.35267 33.7327 0.199333 13.7634L0 11.9152L1.63533 12.0913C8.57333 12.8386 15.4427 12.1691 22.0553 10.1025L22.7573 12.9889C16.3573 14.989 9.73 15.7401 3.03133 15.224C5.12 32.2215 9.978 41.2903 17.852 42.9043C19.766 41.8933 21.3747 40.4213 22.6373 38.5225L24.7467 40.3254C23.1293 42.7569 21.0453 44.6089 18.5527 45.83L18.2047 46Z" fill="#F1D571"/>
<path d="M14.64 24.9623C14.258 24.7757 13.9773 24.8021 13.6793 24.8104C13.3953 24.824 13.1407 24.849 12.9067 24.8868C12.436 24.954 12.0793 25.0681 11.7767 25.1648C11.4793 25.2759 11.1347 25.3885 10.718 25.6257C10.508 25.7391 10.2867 25.8766 10.048 26.0443C9.79933 26.2257 9.55533 26.3829 9.33867 26.7871C9.16 26.6639 9.032 26.4388 8.958 26.2091C8.882 25.9809 8.85867 25.7421 8.842 25.5026C8.83 25.0273 8.93133 24.5679 9.10467 24.1425C9.45 23.2954 10.156 22.5874 11.0273 22.2935C11.9007 22.0071 12.816 22.1666 13.5127 22.6426C13.862 22.8851 14.1693 23.198 14.396 23.5931C14.6013 23.9815 14.802 24.4938 14.64 24.9623Z" fill="#F1D571"/>
<path d="M22.4047 24.8928C22.1073 24.5634 21.8353 24.481 21.5553 24.376C21.2867 24.2815 21.0413 24.212 20.8127 24.1629C20.356 24.0526 19.996 24.0427 19.6833 24.0246C19.3687 24.0223 18.9993 24.0133 18.53 24.0843C18.2953 24.116 18.0433 24.1636 17.766 24.2324C17.4753 24.3095 17.1987 24.3639 16.8687 24.6533C16.6047 24.246 16.6847 23.6921 16.796 23.2569C16.926 22.8088 17.154 22.4167 17.438 22.0819C18.0053 21.4208 18.856 21.0037 19.7653 21.0331C20.674 21.0717 21.514 21.5522 22.0373 22.2723C22.3 22.6343 22.5007 23.0491 22.5953 23.5115C22.6333 23.7473 22.6647 23.9846 22.642 24.2271C22.622 24.4674 22.5493 24.722 22.4047 24.8928Z" fill="#F1D571"/>
<path d="M21.8027 34.6553C21.4193 34.1256 20.974 33.8921 20.5213 33.6556C20.0727 33.4319 19.6233 33.2619 19.1807 33.1373C18.2953 32.8735 17.4553 32.8297 16.6787 32.9264C15.9067 33.0602 15.1053 33.3435 14.308 33.8528C13.9087 34.1007 13.512 34.3946 13.128 34.7391C12.7427 35.0973 12.3633 35.4502 12.1093 36.0728C11.772 35.463 11.848 34.6349 12.0233 33.9662C12.2087 33.274 12.5313 32.6423 12.9387 32.0832C13.7507 30.9671 14.9793 30.1692 16.3407 29.9584C17.7047 29.7748 19.0707 30.1926 20.1053 31.0389C20.624 31.4621 21.0773 31.9812 21.4113 32.5962C21.7313 33.1909 21.9907 33.9684 21.8027 34.6553Z" fill="#F1D571"/>
<path d="M39.466 18.6756C39.1773 18.279 38.8847 18.1256 38.578 17.9563C38.282 17.7969 38.002 17.6669 37.7327 17.5626C37.1953 17.3458 36.728 17.2475 36.312 17.1924C35.896 17.1554 35.4333 17.1365 34.8773 17.2332C34.6 17.2755 34.306 17.342 33.992 17.4364C33.6653 17.5385 33.3547 17.6291 33.0113 17.9684C32.8907 17.7478 32.8593 17.4568 32.88 17.1871C32.9007 16.9189 32.9753 16.6642 33.0587 16.4149C33.244 15.9283 33.5347 15.5119 33.884 15.1651C34.5793 14.4745 35.5767 14.0989 36.5847 14.2145C37.592 14.3407 38.4833 14.9339 39.0467 15.7499C39.328 16.1625 39.5433 16.6279 39.648 17.1402C39.738 17.6367 39.7747 18.2525 39.466 18.6756Z" fill="#F1D571"/>
<path d="M47.894 22.5277C47.75 22.0396 47.5207 21.7835 47.2853 21.5084C47.056 21.2477 46.8313 21.0226 46.6093 20.8276C46.1713 20.4272 45.7613 20.1793 45.3833 19.9776C44.998 19.7924 44.552 19.6118 43.9913 19.4932C43.7127 19.4305 43.4133 19.3829 43.0867 19.3519C42.746 19.3232 42.426 19.2884 41.9987 19.4653C41.9553 19.2106 42.0167 18.9258 42.1187 18.6832C42.22 18.4399 42.366 18.2321 42.5187 18.0304C42.8367 17.6465 43.2293 17.3662 43.656 17.1697C44.5053 16.7844 45.5407 16.7791 46.466 17.2468C47.3873 17.7243 48.0827 18.6152 48.3773 19.6081C48.5253 20.106 48.592 20.6312 48.5367 21.1571C48.4993 21.42 48.4513 21.6822 48.3507 21.9255C48.2507 22.1719 48.0947 22.4061 47.894 22.5277Z" fill="#F1D571"/>
<path d="M44.4587 28.3165C44.508 28.7101 44.4033 29.1265 44.256 29.5058C44.1027 29.8798 43.8927 30.2251 43.6553 30.5342C43.1767 31.1538 42.5833 31.6449 41.932 32.019C40.6333 32.7685 39.0393 32.9854 37.5313 32.5441C36.0307 32.0711 34.7473 30.9762 33.9553 29.5882C33.558 28.8938 33.262 28.1306 33.1227 27.3221C33.0547 26.9193 33.0267 26.5007 33.06 26.0897C33.1013 25.6771 33.196 25.257 33.414 24.9449C33.5727 25.7036 33.9327 26.2166 34.3093 26.7236C34.6867 27.2186 35.096 27.6568 35.5227 28.0422C36.3713 28.8265 37.2927 29.3471 38.218 29.6531C39.1533 29.9191 40.182 29.9924 41.264 29.7975C41.804 29.7075 42.3527 29.561 42.898 29.3471C43.4487 29.1235 43.9873 28.8832 44.4587 28.3165Z" fill="#F1D571"/>
<path d="M34.5107 45.4552L34.1853 45.2331C24.4407 38.5708 22.3787 24.3624 27.8827 1.79457L28.32 0L29.7727 0.869707C38.6773 6.20204 48.2947 9.13683 58.358 9.59322L60 9.66727L59.5833 11.4686C54.3453 34.1173 46.268 45.2323 34.89 45.4476L34.5107 45.4552ZM30.0073 4.3712C25.4467 24.1636 27.158 36.6342 35.2267 42.4418C44.776 42.0111 51.7807 32.2003 56.6047 12.488C47.29 11.8215 38.358 9.09527 30.0073 4.3712Z" fill="#F1D571"/>
</svg>
