<svg width="48" height="60" viewBox="0 0 48 60" fill="none" xmlns="http://www.w3.org/2000/svg">
<path d="M32.3001 26.723C32.412 26.761 32.5271 26.7789 32.639 26.7789C33.0793 26.7789 33.4901 26.5023 33.639 26.062C33.9695 25.0926 35.0264 24.5721 35.9957 24.9005C38.0674 25.6016 40.3282 24.4897 41.0303 22.417C41.2183 21.8658 40.9226 21.265 40.3704 21.077C39.816 20.8901 39.2184 21.1858 39.0304 21.738C38.701 22.7084 37.644 23.229 36.6736 22.8995C34.6051 22.2016 32.3423 23.3113 31.6391 25.383C31.4522 25.9342 31.7478 26.535 32.3001 26.723Z" fill="#F47C7C"/>
<path d="M34.798 19.3654C34.9099 19.4034 35.025 19.4214 35.1369 19.4214C35.5772 19.4214 35.988 19.1447 36.1369 18.7044C36.2963 18.2345 36.6289 17.8544 37.0745 17.6348C37.5201 17.4151 38.0238 17.3834 38.4937 17.5429C40.5654 18.244 42.825 17.1321 43.5282 15.0583C43.7162 14.5071 43.4195 13.9063 42.8683 13.7184C42.3161 13.5283 41.7163 13.8271 41.5294 14.3794C41.2 15.3508 40.1451 15.8714 39.1726 15.5419C38.1674 15.2009 37.0914 15.2706 36.1411 15.7405C35.1908 16.2093 34.4791 17.0213 34.138 18.0254C33.949 18.5777 34.2457 19.1774 34.798 19.3654Z" fill="#F47C7C"/>
<path d="M37.2942 12.0078C37.4072 12.0458 37.5213 12.0638 37.6342 12.0638C38.0746 12.0638 38.4853 11.7871 38.6342 11.3468C38.877 10.6309 39.6595 10.2455 40.3743 10.4883C41.256 10.7872 42.2011 10.7259 43.0363 10.3152C43.8704 9.90337 44.4945 9.19169 44.7944 8.31C44.9823 7.75881 44.6867 7.158 44.1344 6.97005C43.5801 6.78104 42.9824 7.07881 42.7945 7.63105C42.6762 7.97844 42.4302 8.25932 42.1018 8.42087C41.7734 8.58243 41.4017 8.60671 41.0533 8.48739C39.235 7.87391 37.2509 8.84957 36.6343 10.6668C36.4474 11.2201 36.742 11.8198 37.2942 12.0078Z" fill="#F47C7C"/>
<path d="M44.9434 26.6448C44.7597 26.5191 44.5527 26.4473 44.3416 26.4199C46.4397 19.6019 47.5906 12.9222 47.7553 6.56033C47.8071 4.55938 46.8293 1.88793 44.8579 0.651457C43.9118 0.0569793 42.3617 -0.432963 40.3492 0.602885C37.1952 2.23004 34.9397 7.01648 33.1278 10.8642C33.0233 11.086 32.9208 11.3024 32.8195 11.5168C32.4193 9.67632 31.2029 8.10196 29.4733 7.28046C29.0657 5.32069 27.5114 3.7854 25.558 3.38732C25.5369 3.27751 25.5105 3.1698 25.4777 3.06104C25.0754 1.68625 23.8622 0.651457 22.4589 0.484623C21.668 0.390647 20.8845 0.554313 20.2151 0.946056C19.6449 0.628227 19.005 0.459281 18.3482 0.459281C16.512 0.459281 14.9693 1.7401 14.567 3.45384C12.5597 4.0008 11.0878 5.84337 11.0719 7.98475C8.78167 8.57606 7.11333 10.6456 7.11333 13.107C7.11333 13.7595 7.23582 14.4057 7.47129 15.015C6.87681 15.7489 6.54737 16.6675 6.54737 17.6316C6.54737 18.2102 6.66668 18.7677 6.89159 19.283C5.83674 18.132 4.35213 17.1912 2.68484 17.2525C2.10198 17.2715 1.64372 17.7583 1.66167 18.3411C1.67962 18.9124 2.14844 19.3643 2.71652 19.3643C2.75242 19.3654 2.78516 19.3622 2.81895 19.3622C3.80833 19.3622 4.72803 20.0169 5.39748 20.7771C3.7228 21.2597 1.7039 22.0453 0.762032 23.8213C0.195008 24.893 0.128486 26.2077 0.506502 27.7134C0.323829 28.0185 0.223518 28.3733 0.242524 28.7513L2.03968 54.2906C2.20335 57.4932 4.84313 60.001 8.04887 60.001H37.6893C40.8951 60.001 43.5348 57.4932 43.6975 54.3097L45.54 27.8823C45.54 27.876 45.5411 27.8697 45.5411 27.8633C45.5706 27.3765 45.3457 26.9214 44.9434 26.6448ZM33.6811 14.5367C34.0992 13.7564 34.5554 12.7891 35.0379 11.7639C36.625 8.39339 38.8001 3.77801 41.3164 2.47924C42.235 2.00619 43.0259 1.99669 43.7355 2.43911C44.9593 3.20782 45.6794 5.14752 45.6446 6.50542C45.483 12.748 44.3426 19.3178 42.254 26.0334C42.1854 26.2541 42.0333 26.6997 41.8169 27.3111L40.0176 28.1104C39.9785 28.1284 39.9405 28.1474 39.9036 28.1706C39.3841 28.4821 38.8012 28.6362 38.2183 28.6426C37.6355 28.6362 37.0537 28.4821 36.5342 28.1706L35.7813 27.7187C34.9155 27.1992 33.9451 26.9394 32.9747 26.9394C32.9631 26.9394 32.9515 26.9415 32.9388 26.9415C31.9568 26.9352 30.9727 27.1918 30.0963 27.7187L29.3445 28.1706C28.9253 28.4219 28.4617 28.5444 27.9929 28.5972C28.0193 28.5053 28.0499 28.4156 28.0774 28.3248C28.3667 27.3417 28.6771 26.3724 29.0024 25.4104C29.1259 25.0451 29.2547 24.6819 29.3835 24.3197C29.6549 23.5563 29.9389 22.8023 30.2325 22.0537C30.3634 21.719 30.4912 21.3811 30.6263 21.0495C31.5471 18.8036 32.5629 16.6253 33.6811 14.5367ZM20.2203 17.0413C20.3439 16.8829 20.4643 16.7287 20.5783 16.5788C20.5783 16.5767 20.5804 16.5746 20.5804 16.5746C20.6638 16.4637 20.7367 16.3486 20.7979 16.2335C21.0577 15.7446 21.1189 15.1956 20.9986 14.6592L25.4059 13.6951C25.4355 13.8303 25.4672 13.9644 25.5179 14.089C25.7153 14.5726 26.068 14.9749 26.559 15.2558C26.7195 15.3444 26.8874 15.4331 27.0605 15.525C27.2031 15.6 27.3456 15.6781 27.4892 15.7563C27.5579 15.7932 27.6276 15.8302 27.6962 15.8682C27.8218 15.9389 27.9433 16.0171 28.0658 16.0941C28.1703 16.1586 28.2738 16.2251 28.3751 16.2958C28.4924 16.3771 28.6043 16.4669 28.7162 16.5577C28.8144 16.6379 28.9084 16.7256 29.0013 16.8153C29.1016 16.9135 29.2009 17.0138 29.2927 17.1237C29.4553 17.3179 29.6116 17.5196 29.7394 17.7614C29.2917 18.7498 28.8704 19.7582 28.4628 20.775C28.3994 20.9323 28.3319 21.0854 28.2696 21.2428C27.1123 21.5363 25.9941 22.0854 24.6129 23.0684C22.8728 24.3049 21.5772 24.6333 19.4421 24.3239L18.8012 21.3895C18.3662 19.4055 19.3091 18.2039 20.2203 17.0413ZM25.4566 10.6288C25.4841 10.6235 25.5115 10.6203 25.539 10.6203C25.7385 10.6203 25.9254 10.7629 25.9687 10.9635C26.0025 11.1155 25.9455 11.2348 25.9075 11.2929C25.8705 11.3499 25.7871 11.4503 25.6361 11.483L19.8033 12.7596C19.571 12.8103 19.3344 12.6561 19.2838 12.4259C19.2331 12.1947 19.3862 11.9571 19.6174 11.9064L22.7165 11.2285L25.4566 10.6288ZM22.0439 26.9605C21.9637 26.9658 21.8824 26.9679 21.8021 26.9764C21.2266 27.0344 20.6586 27.1801 20.119 27.423L19.9173 26.4991C20.2214 26.5244 20.5245 26.5498 20.8085 26.5498C22.65 26.5498 24.1325 26.0018 25.8367 24.7896C26.3731 24.4073 26.8483 24.118 27.3002 23.8783C27.2031 24.1539 27.107 24.4284 27.013 24.7051C26.9454 24.9036 26.8726 25.0989 26.8071 25.2985C26.4967 26.2383 26.201 27.1854 25.9254 28.141L25.2233 27.7208C24.3574 27.2013 23.387 26.9415 22.4166 26.9415C22.404 26.9415 22.3902 26.9436 22.3776 26.9436C22.2656 26.9415 22.1548 26.9542 22.0439 26.9605ZM9.41416 16.0414L10.1058 15.4712L9.65702 14.6972C9.37615 14.2115 9.22726 13.6624 9.22726 13.107C9.22726 11.3964 10.5672 10.0015 12.2778 9.92974L13.5597 9.87589L13.2608 8.6278C13.2102 8.41873 13.1848 8.21283 13.1848 8.01749C13.1848 6.65747 14.2471 5.51181 15.6029 5.40833L16.5785 5.33442V4.28379C16.6091 3.33453 17.3916 2.5711 18.3493 2.5711C18.9005 2.5711 19.2954 2.82241 19.5287 3.03359L20.2689 3.70198L20.9785 3.00086C21.3037 2.67986 21.7504 2.52992 22.2107 2.58272C22.7767 2.64924 23.2878 3.09061 23.4525 3.65763C23.5085 3.8477 23.5243 4.03143 23.5021 4.21832L23.3786 5.39777H24.5675C26.0849 5.39777 27.3541 6.58356 27.4586 8.09774L27.5061 8.79147L28.1619 9.02166C29.8122 9.60135 30.8977 11.163 30.8608 12.9106C30.8449 13.6571 30.6042 14.3762 30.1681 15.0066C29.4617 14.4068 28.7004 14.0024 28.0605 13.6656C27.8947 13.5779 27.7342 13.4934 27.5727 13.4037C27.5272 13.3783 27.4723 13.334 27.4533 13.2231C27.428 13.0711 27.485 12.8884 27.6001 12.7543C28.0605 12.22 28.2453 11.4914 28.0964 10.804L27.9686 10.2222C27.8409 9.63514 27.4903 9.13358 26.9835 8.80836C26.4777 8.4842 25.8758 8.37544 25.2898 8.50426L25.0068 8.56656C25.0036 8.56762 25.0005 8.56656 24.9973 8.56762L21.8982 9.24551L18.8741 9.90545C18.288 10.0332 17.7865 10.3827 17.4613 10.8906C17.136 11.3964 17.0283 11.9993 17.1561 12.5854L17.2194 12.8726V12.8757C17.2194 12.8757 17.2205 12.8778 17.2205 12.88L17.2828 13.1661C17.4359 13.8693 17.9248 14.4617 18.589 14.7468C18.7537 14.8175 18.891 14.9516 18.9385 15.0879C18.9659 15.166 18.9501 15.2061 18.8888 15.3075V15.3085C18.7843 15.449 18.6713 15.5915 18.5562 15.7383C18.4401 15.8861 18.3197 16.0413 18.1972 16.2018C18.156 16.2557 18.117 16.3117 18.0758 16.3666C17.9882 16.4859 17.9005 16.6073 17.8139 16.734C17.7664 16.8027 17.721 16.8734 17.6745 16.9452C17.5943 17.0687 17.5172 17.1965 17.4412 17.3274C17.3968 17.4035 17.3536 17.4784 17.3113 17.5576C17.2321 17.7055 17.1603 17.8607 17.0896 18.0191C17.059 18.0866 17.0262 18.1511 16.9988 18.2218C16.9058 18.452 16.8235 18.6927 16.758 18.9462C16.7475 18.9863 16.7432 19.0296 16.7337 19.0708C16.683 19.2862 16.6419 19.509 16.6155 19.7413C16.6049 19.8342 16.6028 19.9313 16.5965 20.0274C16.588 20.152 16.5722 20.2703 16.5722 20.4001C16.568 20.3949 16.5637 20.3896 16.5595 20.3843C16.5447 20.3653 16.5299 20.3484 16.5162 20.3294C16.3325 20.0876 16.1488 19.8648 15.964 19.6536C15.9059 19.5871 15.8468 19.5227 15.7876 19.4593C15.6324 19.2914 15.4772 19.1341 15.3209 18.9863C15.2702 18.9388 15.2196 18.887 15.1678 18.8406C14.9704 18.6642 14.7719 18.5027 14.5723 18.3591C14.5163 18.3189 14.4593 18.2852 14.4033 18.2471C14.2534 18.1468 14.1035 18.0539 13.9514 17.9716C13.8775 17.9314 13.8046 17.8924 13.7297 17.8565C13.5723 17.7794 13.414 17.7139 13.2545 17.6569C13.2017 17.6379 13.1489 17.6125 13.0961 17.5956C12.923 17.5407 12.7487 17.4964 12.5734 17.4637C12.5534 17.4594 12.5333 17.4615 12.5133 17.4584C12.4774 17.452 12.4425 17.4383 12.4066 17.433C12.2841 17.4151 12.168 17.4225 12.0476 17.414C11.9631 17.4088 11.8797 17.3908 11.7952 17.3908C11.7699 17.3908 11.7435 17.3971 11.7171 17.3971C11.5534 17.3992 11.395 17.4183 11.2356 17.4383C11.1564 17.4489 11.0772 17.4552 10.998 17.47C10.79 17.508 10.5883 17.5608 10.3888 17.6242C10.3581 17.6337 10.3286 17.6411 10.298 17.6516C9.77212 17.8301 9.27372 18.0824 8.80701 18.3876C8.71092 18.15 8.66024 17.8945 8.66024 17.6316C8.6613 17.0138 8.93583 16.4341 9.41416 16.0414ZM2.62994 24.8086C3.07659 23.967 4.16101 23.325 6.0437 22.7865C6.92433 22.5352 7.7416 22.0653 8.40471 21.4318C8.70565 21.1435 8.98757 20.8996 9.26 20.6779C10.1111 19.9862 10.8449 19.6103 11.5091 19.5248C11.5239 19.5227 11.5387 19.5206 11.5534 19.5195C11.7636 19.4963 11.9674 19.5026 12.1648 19.5375C12.2165 19.547 12.2693 19.5649 12.3221 19.5786C12.4203 19.6029 12.5175 19.6272 12.6157 19.6663C12.679 19.6906 12.7424 19.7275 12.8068 19.7571C12.8987 19.8014 12.9895 19.8416 13.0813 19.8975C13.1531 19.9408 13.2249 19.9968 13.2967 20.0464C13.3823 20.1066 13.4678 20.1615 13.5544 20.2312C13.6346 20.2956 13.7149 20.3737 13.7951 20.4466C13.8754 20.5195 13.9556 20.586 14.0359 20.6673C14.1246 20.757 14.2143 20.8616 14.3041 20.9619C14.3769 21.0432 14.4498 21.1182 14.5237 21.2058C14.624 21.3262 14.7254 21.4634 14.8268 21.5965C14.8912 21.681 14.9545 21.757 15.0189 21.8467C15.134 22.0072 15.2502 22.1857 15.3663 22.3631C15.417 22.4412 15.4688 22.5109 15.5194 22.5912C15.6873 22.8562 15.8563 23.1381 16.0263 23.438C16.8034 24.8096 17.0611 26.8359 16.7232 28.6003C16.6672 28.5951 16.6123 28.5866 16.5563 28.5782C16.154 28.5095 15.7665 28.3807 15.4138 28.1695L14.661 27.7176C13.7951 27.1981 12.8248 26.9383 11.8544 26.9383C11.8428 26.9383 11.8311 26.9405 11.8185 26.9405C10.8365 26.9341 9.85236 27.1907 8.97596 27.7176L8.60956 27.9372C7.97073 28.3205 7.25482 28.5138 6.53892 28.5201C5.82195 28.5138 5.1071 28.3216 4.46828 27.9372L3.04808 27.0841L3.04702 27.083C2.86013 26.9721 2.65845 26.8961 2.45149 26.8581C2.28571 26.0229 2.34484 25.3471 2.62994 24.8086ZM41.5941 54.1819C41.4874 56.2599 39.7737 57.8881 37.6936 57.8881H8.05204C5.97084 57.8881 4.25815 56.2599 4.15045 54.1618L2.39341 29.198L3.31206 29.7492C4.30778 30.3468 5.42599 30.6404 6.54103 30.634C7.65713 30.6404 8.77428 30.3468 9.77 29.7492L10.1364 29.5295C10.6559 29.217 11.2377 29.0628 11.8206 29.0565C12.4034 29.0628 12.9852 29.217 13.5058 29.5295L14.2587 29.9815C15.2111 30.5527 16.2903 30.7977 17.3567 30.7396C17.4518 30.7354 17.5468 30.7354 17.6429 30.7269C17.6545 30.7259 17.665 30.7196 17.6777 30.7185C18.3989 30.6372 19.1064 30.4102 19.7589 30.0385C19.8202 30.0163 19.8856 30.0153 19.9426 29.9815L20.6955 29.5295C21.215 29.217 21.7968 29.0628 22.3797 29.0565C22.9625 29.0628 23.5444 29.217 24.0649 29.5295L24.8178 29.9815C25.6171 30.4598 26.5062 30.7079 27.4005 30.7449C27.4185 30.746 27.4375 30.7481 27.4554 30.7481C27.7638 30.7576 28.0721 30.7481 28.3783 30.7048C28.5536 30.6826 28.7236 30.6383 28.8957 30.5992C28.9791 30.5791 29.0625 30.5612 29.1449 30.5369C29.6137 30.407 30.073 30.237 30.5007 29.9804L31.2536 29.5285C31.7731 29.2159 32.3549 29.0618 32.9377 29.0554C33.5206 29.0618 34.1024 29.2159 34.623 29.5285L35.3758 29.9804C36.248 30.5031 37.2268 30.7597 38.2046 30.7555C38.2205 30.7555 38.2373 30.7586 38.2532 30.7586C39.2014 30.7586 40.1507 30.5115 41.0017 30.0153L43.0734 29.0945C43.1178 29.0745 43.1494 29.0364 43.1906 29.0111L43.3522 28.9393L41.5941 54.1819Z" fill="#F47C7C"/>
<path d="M6.57739 45.4084H13.9688C14.5516 45.4084 15.0247 44.9364 15.0247 44.3525C15.0247 43.7686 14.5516 43.2966 13.9688 43.2966H6.57739C5.99453 43.2966 5.52148 43.7686 5.52148 44.3525C5.52148 44.9364 5.99453 45.4084 6.57739 45.4084Z" fill="#F47C7C"/>
<path d="M6.57739 49.632H16.0806C16.6635 49.632 17.1365 49.16 17.1365 48.5761C17.1365 47.9922 16.6635 47.5202 16.0806 47.5202H6.57739C5.99453 47.5202 5.52148 47.9922 5.52148 48.5761C5.52148 49.16 5.99453 49.632 6.57739 49.632Z" fill="#F47C7C"/>
<path d="M18.1924 51.7438H6.57739C5.99453 51.7438 5.52148 52.2158 5.52148 52.7997C5.52148 53.3837 5.99453 53.8557 6.57739 53.8557H18.1924C18.7753 53.8557 19.2483 53.3837 19.2483 52.7997C19.2483 52.2158 18.7753 51.7438 18.1924 51.7438Z" fill="#F47C7C"/>
<path d="M24.5271 51.7438H22.4153C21.8324 51.7438 21.3594 52.2158 21.3594 52.7997C21.3594 53.3837 21.8324 53.8557 22.4153 53.8557H24.5271C25.11 53.8557 25.583 53.3837 25.583 52.7997C25.583 52.2158 25.11 51.7438 24.5271 51.7438Z" fill="#F47C7C"/>
</svg>
