<svg width="58" height="60" viewBox="0 0 58 60" fill="none" xmlns="http://www.w3.org/2000/svg">
<path d="M56.6672 26.8603L30.3777 0.570737C29.6166 -0.190327 28.3829 -0.190327 27.6218 0.570737L18.703 9.48959V7.92372C18.703 6.84741 17.8306 5.97505 16.7543 5.97505H10.8927C9.81638 5.97505 8.94402 6.84741 8.94402 7.92372V19.2487L1.33252 26.8603C0.571453 27.6213 0.571453 28.855 1.33252 29.6161C2.09358 30.3772 3.32731 30.3772 4.08837 29.6161L28.9997 4.70452L53.9113 29.6161C54.2918 29.9965 54.7906 30.1868 55.2893 30.1868C55.7879 30.1868 56.2865 29.9965 56.6672 29.6161C57.4282 28.855 57.4282 27.6213 56.6672 26.8603ZM12.8414 9.87218H14.8056V13.3867L12.8411 15.3512V9.87218H12.8414Z" fill="#87CBB9"/>
<path d="M30.3779 10.1889C29.6168 9.42787 28.3831 9.42787 27.622 10.1889L5.94672 31.8642C5.58124 32.2297 5.37598 32.7253 5.37598 33.2421V58.0513C5.37598 59.1276 6.24833 60 7.32465 60H23.2104C24.2867 60 25.1591 59.1276 25.1591 58.0513V45.9639H32.841V58.0513C32.841 59.1276 33.7133 60 34.7896 60H50.6752C51.7515 60 52.6239 59.1276 52.6239 58.0513V33.2421C52.6239 32.7253 52.4186 32.2297 52.0531 31.8642L30.3779 10.1889ZM48.7265 56.7184H36.7383V44.0153C36.7383 42.9389 35.866 42.0666 34.7896 42.0666H23.2104C22.1341 42.0666 21.2618 42.9389 21.2618 44.0153V56.7184H9.27332V34.0493L28.9999 14.3227L48.7265 34.0493V56.7184Z" fill="#87CBB9"/>
</svg>
