<svg width="60" height="48" viewBox="0 0 60 48" fill="none" xmlns="http://www.w3.org/2000/svg">
<path d="M15.3027 9.91797H8.4668C7.52344 9.91797 6.75781 9.15234 6.75781 8.20898C6.75781 6.13086 8.43945 4.44922 10.5176 4.44922H13.252C15.3301 4.44922 17.0117 6.13086 17.0117 8.20898C17.0117 9.15234 16.2461 9.91797 15.3027 9.91797ZM8.84961 7.86719H14.9336C14.7695 7.08789 14.0859 6.5 13.2656 6.5H10.5312C9.69727 6.5 9 7.08789 8.84961 7.86719Z" fill="#F66197"/>
<path d="M51.5332 9.91797H44.6973C43.7539 9.91797 42.9883 9.15234 42.9883 8.20898C42.9883 6.13086 44.6699 4.44922 46.748 4.44922H49.4824C51.5605 4.44922 53.2422 6.13086 53.2422 8.20898C53.2422 9.15234 52.4766 9.91797 51.5332 9.91797ZM45.0801 7.86719H51.1641C51 7.08789 50.3164 6.5 49.4961 6.5H46.7617C45.9277 6.5 45.2305 7.08789 45.0801 7.86719Z" fill="#F66197"/>
<path d="M51.8066 47.6523H48.6621C48.1016 47.6523 47.6367 47.1875 47.6367 46.627C47.6367 46.0664 48.1016 45.6016 48.6621 45.6016H51.8066C54.7461 45.6016 57.1387 43.209 57.1387 40.2695V15.25C57.1387 12.3105 54.7461 9.91797 51.8066 9.91797H8.19336C5.25391 9.91797 2.86133 12.3105 2.86133 15.25V40.2695C2.86133 43.209 5.25391 45.6016 8.19336 45.6016H44.3555C44.916 45.6016 45.3809 46.0664 45.3809 46.627C45.3809 47.1875 44.916 47.6523 44.3555 47.6523H8.19336C4.11914 47.6523 0.810547 44.3438 0.810547 40.2695V15.25C0.810547 11.1758 4.11914 7.86719 8.19336 7.86719H51.8066C55.8809 7.86719 59.1895 11.1758 59.1895 15.25V40.2695C59.1895 44.3438 55.8809 47.6523 51.8066 47.6523Z" fill="#F66197"/>
<path d="M33.6777 37.8086H26.3359C25.7754 37.8086 25.3105 37.3438 25.3105 36.7832V32.2715H20.7988C20.2383 32.2715 19.7734 31.8066 19.7734 31.2461V23.9043C19.7734 23.3438 20.2383 22.8789 20.7988 22.8789H25.3105V18.3672C25.3105 17.8066 25.7754 17.3418 26.3359 17.3418H33.6777C34.2383 17.3418 34.7031 17.8066 34.7031 18.3672V22.8789H39.2148C39.7754 22.8789 40.2402 23.3438 40.2402 23.9043V31.2461C40.2402 31.8066 39.7754 32.2715 39.2148 32.2715H34.7031V36.7832C34.7031 37.3438 34.2383 37.8086 33.6777 37.8086ZM27.3477 35.7578H32.6387V31.2461C32.6387 30.6855 33.1035 30.2207 33.6641 30.2207H38.1758V24.9297H33.6641C33.1035 24.9297 32.6387 24.4648 32.6387 23.9043V19.3926H27.3477V23.9043C27.3477 24.4648 26.8828 24.9297 26.3223 24.9297H21.8105V30.2207H26.3223C26.8828 30.2207 27.3477 30.6855 27.3477 31.2461V35.7578Z" fill="#F66197"/>
<path d="M41.0059 9.91797H35.127V6.77344C35.127 6.39062 34.8262 6.08984 34.4434 6.08984H25.2832C24.9004 6.08984 24.5996 6.39062 24.5996 6.77344V9.91797H18.9941V5.74805C18.9941 2.76758 21.4141 0.347656 24.3945 0.347656H35.6055C38.5859 0.347656 41.0059 2.76758 41.0059 5.74805V9.91797ZM37.1777 7.86719H38.9551V5.74805C38.9551 3.90234 37.4512 2.39844 35.6055 2.39844H24.3945C22.5488 2.39844 21.0449 3.90234 21.0449 5.74805V7.86719H22.5488V6.77344C22.5488 5.26953 23.7793 4.03906 25.2832 4.03906H34.4434C35.9473 4.03906 37.1777 5.26953 37.1777 6.77344V7.86719Z" fill="#F66197"/>
</svg>
