<svg width="60" height="60" viewBox="0 0 60 60" fill="none" xmlns="http://www.w3.org/2000/svg">
<path d="M37.6753 29.1275C39.1037 29.1275 40.5321 28.5612 41.6194 27.4285L50.1563 18.5355C50.684 17.9858 50.684 17.0946 50.1563 16.5449C49.6285 15.9954 48.7733 15.9954 48.2455 16.5449L42.505 22.5252L41.427 21.4024L47.38 15.2009C47.9077 14.6513 47.9077 13.76 47.38 13.2104C46.8522 12.6608 45.9969 12.6608 45.4691 13.2104L39.5161 19.4118L38.4381 18.2888L44.1788 12.3087C44.7065 11.759 44.7065 10.8678 44.1788 10.3181C43.651 9.76858 42.7958 9.76858 42.2679 10.3181L33.731 19.211C32.6775 20.3087 32.0972 21.7679 32.0972 23.3198C32.0972 23.3775 32.0996 23.4346 32.1013 23.492L28.2279 27.5269L12.2218 10.8534C11.8674 10.4843 11.346 10.3498 10.8667 10.5043C10.3878 10.6589 10.0305 11.0769 9.93831 11.5903C9.16699 15.8915 10.4798 20.3066 13.4499 23.4006L22.8196 33.161L13.093 43.2933C12.3706 44.0458 11.9729 45.0461 11.9729 46.1103C11.9729 47.1745 12.3706 48.1749 13.093 48.9274C13.8153 49.6799 14.7757 50.0941 15.7972 50.0941C16.8188 50.0941 17.7791 49.6799 18.5015 48.9274L28.2282 38.7951L37.4409 48.3921C38.1866 49.1687 39.1658 49.5569 40.1452 49.5569C41.1246 49.5569 42.1039 49.1687 42.8495 48.3921C44.3407 46.8387 44.3407 44.3113 42.8495 42.7581L33.6366 33.161L37.5124 29.1236C37.5667 29.1251 37.6209 29.1275 37.6753 29.1275ZM40.9386 46.4015C40.5012 46.8572 39.7893 46.8572 39.3518 46.4015L30.1389 36.8045L31.7257 35.1514L40.9386 44.7485C41.3762 45.2042 41.3762 45.9458 40.9386 46.4015ZM16.5906 46.9368C16.1532 47.3925 15.4413 47.3925 15.0038 46.9368C14.5662 46.4811 14.5662 45.7395 15.0038 45.2838L33.0175 26.5189C33.2234 26.8427 33.4615 27.1477 33.7313 27.4285C34.003 27.7116 34.2959 27.9591 34.6047 28.1714L16.5906 46.9368ZM23.3958 26.4741L21.8278 28.1076C21.8214 28.1141 21.816 28.1213 21.8099 28.128L15.3608 21.4101C13.7113 19.6919 12.7108 17.4566 12.4769 15.0999L23.3958 26.4741ZM23.7385 30.0981L25.3065 28.4647L26.3171 29.5175L24.7303 31.1706L23.7188 30.1167C23.7253 30.1102 23.7322 30.1047 23.7385 30.0981ZM35.6419 21.2014L36.5272 20.2793L40.5939 24.5156L39.7085 25.438C38.5873 26.606 36.763 26.606 35.6417 25.438C34.5206 24.2701 34.5206 22.3695 35.6419 21.2014Z" fill="#E17957"/>
<path d="M44.4639 41.5934C47.0546 38.4318 48.608 34.3963 48.608 30C48.608 27.5993 48.1448 25.3062 47.3024 23.2043C47.886 22.848 48.4115 22.4067 48.8613 21.8976C49.949 24.3795 50.5523 27.1197 50.5523 30C50.5523 35.1441 48.628 39.8413 45.4562 43.4188C45.2473 42.7431 44.9066 42.1247 44.4639 41.5934Z" fill="#E17957"/>
<path d="M35.6521 47.534C33.9104 48.0751 32.0579 48.3667 30.1369 48.3667C27.1936 48.3667 24.411 47.6821 21.9414 46.4643C21.6701 47.0702 21.2771 47.6102 20.7933 48.0539C23.5931 49.4895 26.7698 50.3 30.1369 50.3C32.5424 50.3 34.8506 49.8863 36.9937 49.1266C36.4483 48.6899 35.9908 48.1489 35.6521 47.534Z" fill="#E17957"/>
<path d="M38.2223 13.4818C35.7803 12.2977 33.0366 11.6333 30.1369 11.6333C25.9705 11.6333 22.1262 13.005 19.0359 15.3191C18.5842 14.8222 18.0394 14.4106 17.4289 14.1114C20.916 11.3501 25.3327 9.7 30.1369 9.7C33.5709 9.7 36.8069 10.5431 39.6469 12.0324C39.1024 12.4418 38.6217 12.9307 38.2223 13.4818Z" fill="#E17957"/>
<path d="M14.9143 40.4058C12.8654 37.4479 11.6659 33.8632 11.6659 30C11.6659 27.7837 12.0607 25.659 12.7842 23.6918C12.168 23.4018 11.6164 22.9982 11.1569 22.5082C10.2307 24.8261 9.72159 27.3539 9.72159 30C9.72159 34.3832 11.1187 38.4419 13.4942 41.7599C13.8697 41.2183 14.3534 40.7566 14.9143 40.4058Z" fill="#E17957"/>
<path fill-rule="evenodd" clip-rule="evenodd" d="M30 58C45.464 58 58 45.464 58 30C58 14.536 45.464 2 30 2C14.536 2 2 14.536 2 30C2 45.464 14.536 58 30 58ZM30 60C46.5685 60 60 46.5685 60 30C60 13.4315 46.5685 0 30 0C13.4315 0 0 13.4315 0 30C0 46.5685 13.4315 60 30 60Z" fill="#E17857"/>
</svg>
