<svg width="60" height="48" viewBox="0 0 60 48" fill="none" xmlns="http://www.w3.org/2000/svg">
<path d="M30.1763 43.5441C29.6213 44.3294 28.817 44.8332 27.9114 44.9626C27.0059 45.0921 26.1089 44.8314 25.3859 44.2289C24.6628 43.6263 24.1989 42.753 24.0797 41.7696C23.9604 40.7861 24.2003 39.812 24.7539 39.0285L30.1054 31.4011C30.7773 30.4502 31.7931 29.951 32.8199 29.951C33.5457 29.951 34.2769 30.2005 34.8959 30.7162C35.619 31.3188 36.0829 32.1922 36.2021 33.1755C36.3214 34.159 36.0815 35.1332 35.5279 35.9166L30.1763 43.5441ZM34.9157 33.3596C34.8417 32.7493 34.5541 32.2075 34.106 31.8341C33.1789 31.0616 31.8461 31.2522 31.1361 32.257L25.7846 39.8843C25.4407 40.3711 25.292 40.9752 25.366 41.5856C25.44 42.1959 25.7276 42.7377 26.1758 43.111C26.5488 43.4219 26.9965 43.5858 27.4602 43.5858C27.5537 43.5858 27.6478 43.5791 27.7422 43.5656C28.3043 43.4853 28.8032 43.1729 29.1457 42.6882L34.4971 35.0607C34.841 34.5741 34.9896 33.9698 34.9157 33.3596Z" fill="#37DBD2"/>
<path d="M51.224 31.4031L56.5738 39.028C57.128 39.8131 57.3676 40.7867 57.2484 41.7696C57.1292 42.753 56.6652 43.6264 55.9421 44.2289C55.219 44.8314 54.3222 45.0918 53.4166 44.9626C52.511 44.8332 51.7066 44.3293 51.1503 43.5421L45.8015 35.9185C45.2466 35.1332 45.0067 34.1591 45.1259 33.1755C45.2451 32.1922 45.7091 31.3187 46.4322 30.7162C47.051 30.2005 47.7819 29.9511 48.5077 29.9511C49.5348 29.9512 50.5512 30.4509 51.224 31.4031ZM47.222 31.8341C46.7739 32.2076 46.4863 32.7493 46.4124 33.3596C46.3384 33.9699 46.487 34.5741 46.8323 35.0627L52.1811 42.6863C52.525 43.173 53.0239 43.4854 53.5859 43.5657C53.6803 43.5792 53.7744 43.5858 53.8679 43.5858C54.3316 43.5858 54.7794 43.4219 55.1524 43.111C55.6005 42.7376 55.8881 42.1959 55.962 41.5856C56.0361 40.9752 55.8874 40.3711 55.5435 39.8843C55.5431 39.8837 55.5426 39.8831 55.5421 39.8824L50.1933 32.2589C49.4821 31.2521 48.1492 31.0616 47.222 31.8341Z" fill="#37DBD2"/>
<path d="M48.5157 26.9489C50.394 26.949 52.2227 27.8788 53.4199 29.5733L58.6497 37.0284C60.691 39.9174 60.3852 43.9996 57.9537 46.3221C56.6517 47.5657 54.9858 48.1503 53.2626 47.967C51.5625 47.7866 49.9927 46.8414 48.9545 45.3721L43.6058 37.7485C41.9958 35.4699 41.9121 32.3488 43.3478 29.9774L40.6809 26.207C40.6753 26.207 40.6698 26.2071 40.6641 26.2071C40.6585 26.2071 40.6531 26.2067 40.6475 26.2067L37.9804 29.9774C39.416 32.3488 39.3325 35.4698 37.7238 37.7466L32.3722 45.374C31.3353 46.8413 29.7655 47.7865 28.0654 47.967C26.3423 48.1498 24.6764 47.5657 23.3744 46.322C20.9428 43.9995 20.6372 39.9173 22.677 37.0303L27.9095 29.5713C29.5196 27.2926 32.2741 26.3972 34.7552 27.2895L37.3847 23.5712C37.3869 23.5681 37.3895 23.5654 37.3918 23.5624C37.2983 23.2246 37.2475 22.8671 37.2475 22.4968C37.2475 22.171 37.2887 21.846 37.3702 21.5264L27.7918 7.98426C27.046 6.92885 26.6089 5.66942 26.5275 4.34207L26.3073 0.751357C26.2882 0.441665 26.4582 0.15489 26.7256 0.0453662C26.8003 0.0147445 26.8777 0 26.9543 0C27.1518 0 27.3436 0.0980622 27.469 0.275405L40.5616 18.7892C40.5949 18.7874 40.629 18.7864 40.664 18.7864C40.6983 18.7864 40.7323 18.7881 40.7664 18.7892L53.859 0.275499C53.9844 0.0981567 54.1762 9.17299e-05 54.3736 9.17299e-05C54.4502 9.17299e-05 54.5277 0.0148391 54.6024 0.0454608C54.8699 0.154985 55.0397 0.441665 55.0207 0.751451L54.8005 4.34207C54.7191 5.66942 54.282 6.92885 53.536 7.98464L43.9603 21.5228C44.0382 21.8334 44.0806 22.1597 44.0806 22.4968C44.0806 22.8599 44.0322 23.2165 43.9364 23.5615L46.5728 27.2895C47.2104 27.0602 47.866 26.9489 48.5157 26.9489ZM35.4915 28.5616C35.3115 28.8162 34.9958 28.9064 34.7237 28.781C32.6714 27.8355 30.2926 28.5132 28.9403 30.427L23.7077 37.886C22.0807 40.1887 22.3107 43.4295 24.2313 45.2639C25.2608 46.2471 26.5775 46.7093 27.9393 46.5645C29.2834 46.4218 30.5239 45.6752 31.3416 44.5179L36.6932 36.8904C38.0468 34.9746 38.0339 32.3039 36.6617 30.3958C36.4797 30.1427 36.4783 29.7878 36.6585 29.5331L39.2481 25.8718C38.7947 25.6466 38.3944 25.3169 38.0731 24.9109L35.4915 28.5616ZM52.507 7.12658C53.0963 6.29256 53.4417 5.29726 53.506 4.24833L53.5839 2.97762L42.1449 19.1534C42.5936 19.3887 42.9879 19.7275 43.3017 20.1411L52.507 7.12658ZM45.8366 28.5617L42.691 24.1137C42.5478 23.9112 42.5167 23.6403 42.6098 23.4057C42.7249 23.1158 42.7832 22.8099 42.7832 22.4968C42.7832 21.2278 41.8325 20.1954 40.6641 20.1954C40.5899 20.1954 40.5036 20.2092 40.4035 20.2248L40.3626 20.2313C40.1306 20.2677 39.8986 20.1649 39.7559 19.9631L27.7441 2.97772L27.8221 4.24852C27.8864 5.29735 28.2318 6.29265 28.8209 7.12629L38.6089 20.9646C38.7479 21.1611 38.7817 21.4226 38.6977 21.6531C38.5963 21.9313 38.5449 22.2152 38.5449 22.4967C38.5449 23.7656 39.4955 24.798 40.664 24.798C40.6965 24.798 40.747 24.7905 40.8005 24.7826C40.8346 24.7775 40.8687 24.7725 40.9031 24.7683C41.1295 24.7399 41.3523 24.8431 41.4909 25.0391L44.6696 29.5332C44.8497 29.7879 44.8484 30.1428 44.6664 30.3959C43.2941 32.304 43.2812 34.9747 44.6363 36.8925L49.9851 44.5161C50.8042 45.6753 52.0447 46.4219 53.3887 46.5646C54.7503 46.7092 56.0673 46.2473 57.0968 45.2639C59.0174 43.4295 59.2473 40.1887 57.6189 37.8841L52.3892 30.429C51.0355 28.5132 48.6566 27.8355 46.6044 28.781C46.3324 28.9064 46.0167 28.8163 45.8366 28.5617Z" fill="#37DBD2"/>
<path d="M40.6657 23.2012C40.3075 23.2012 40.0166 22.8857 40.0166 22.4967C40.0166 22.1076 40.3075 21.7922 40.6657 21.7922C41.024 21.7922 41.3144 22.1076 41.3144 22.4967C41.3144 22.8857 41.0241 23.2012 40.6657 23.2012Z" fill="#37DBD2"/>
<path d="M17.4592 1.77418C17.9959 1.77418 18.4312 1.43315 18.4312 1.01267C18.4312 0.592194 17.9959 0.251166 17.4592 0.251166H4.57252C2.05113 0.251166 0 1.8582 0 3.83355V44.3655C0 46.3408 2.05113 47.9479 4.57252 47.9479H17.4594C17.9961 47.9479 18.4313 47.6069 18.4313 47.1864C18.4313 46.7659 17.9961 46.4249 17.4594 46.4249H5.54447V44.9934H17.4594C17.9961 44.9934 18.4313 44.6524 18.4313 44.2319C18.4313 43.8114 17.9961 43.4704 17.4594 43.4704H5.54447V41.8962H17.4594C17.9961 41.8962 18.4313 41.5552 18.4313 41.1347C18.4313 40.7142 17.9961 40.3732 17.4594 40.3732H5.54447V38.7989H17.4594C17.9961 38.7989 18.4313 38.4579 18.4313 38.0374C18.4313 37.6169 17.9961 37.2759 17.4594 37.2759H5.54447V35.7017H17.4594C17.9961 35.7017 18.4313 35.3607 18.4313 34.9402C18.4313 34.5198 17.9961 34.1787 17.4594 34.1787H5.54447V32.6046H17.4594C17.9961 32.6046 18.4313 32.2635 18.4313 31.8431C18.4313 31.4226 17.9961 31.0816 17.4594 31.0816H5.54447V29.5073H17.4594C17.9961 29.5073 18.4313 29.1662 18.4313 28.7458C18.4313 28.3253 17.9961 27.9843 17.4594 27.9843H5.54447V26.4101H17.4594C17.9961 26.4101 18.4313 26.0691 18.4313 25.6486C18.4313 25.2281 17.9961 24.8871 17.4594 24.8871H5.54447V23.3124H17.4594C17.9961 23.3124 18.4313 22.9714 18.4313 22.5509C18.4313 22.1304 17.9961 21.7894 17.4594 21.7894H5.54447V20.2152H17.4594C17.9961 20.2152 18.4313 19.8742 18.4313 19.4537C18.4313 19.0332 17.9961 18.6922 17.4594 18.6922H5.54447V17.1179H17.4594C17.9961 17.1179 18.4313 16.7769 18.4313 16.3564C18.4313 15.9359 17.9961 15.5949 17.4594 15.5949H5.54447V14.0207H17.4594C17.9961 14.0207 18.4313 13.6797 18.4313 13.2592C18.4313 12.8388 17.9961 12.4977 17.4594 12.4977H5.54447V10.9232H17.4594C17.9961 10.9232 18.4313 10.5822 18.4313 10.1617C18.4313 9.7412 17.9961 9.40017 17.4594 9.40017H5.54447V7.82601H17.4594C17.9961 7.82601 18.4313 7.48498 18.4313 7.0645C18.4313 6.64402 17.9961 6.30299 17.4594 6.30299H5.54447V4.7287H17.4594C17.9961 4.7287 18.4313 4.38767 18.4313 3.9672C18.4313 3.54672 17.9961 3.20569 17.4594 3.20569H5.54447V1.77418H17.4592ZM1.94389 44.3655V3.83355C1.94389 2.96708 2.63122 2.22537 3.60057 1.92179V46.2772C2.63122 45.9736 1.94389 45.2319 1.94389 44.3655Z" fill="#37DBD2"/>
</svg>
