<svg width="58" height="58" viewBox="0 0 58 58" fill="none" xmlns="http://www.w3.org/2000/svg">
<path d="M6.84458 39.6963C7.33001 39.304 7.40906 38.5884 7.02097 38.098C3.91249 34.1685 2.22539 29.2528 2.25085 24.2189C8.72143 25.5155 16.2349 26.1983 24.0777 26.1983C29.1552 26.1983 34.0958 25.9119 38.7046 25.3581C38.7136 25.7055 38.7146 26.0538 38.7074 26.4032C38.6872 27.3627 38.6056 28.3262 38.4645 29.2671C38.3715 29.888 38.7942 30.4676 39.4086 30.5617C40.0233 30.6561 40.5966 30.2285 40.6898 29.6076C40.845 28.5701 40.9352 27.5083 40.9573 26.4512C40.967 25.9873 40.9635 25.5243 40.9472 25.0637C42.6558 24.8199 44.3119 24.538 45.9049 24.2189C45.9059 24.4115 45.9042 24.6047 45.9003 24.7983C45.88 25.7588 45.7984 26.7223 45.6574 27.6621C45.5642 28.2831 45.9869 28.8627 46.6013 28.9568C47.2174 29.0526 47.7895 28.6237 47.8826 28.003C48.0379 26.9667 48.1281 25.9047 48.1502 24.8465C48.4304 11.4322 37.8595 0.288721 24.5861 0.00569749C11.3189 -0.282585 0.285389 10.4053 0.00533175 23.8196C-0.113387 29.5072 1.7539 35.0822 5.26298 39.5182C5.48523 39.7992 5.81241 39.9454 6.14268 39.9454C6.38912 39.9452 6.63711 39.8639 6.84458 39.6963ZM42.0898 11.8874C44.0736 14.8112 45.3781 18.2375 45.7764 21.9256C44.1686 22.2544 42.4932 22.5441 40.7608 22.7935C40.2856 19.1122 38.9839 15.6089 36.9835 12.5422C38.7347 12.3606 40.4423 12.1419 42.0898 11.8874ZM24.5386 2.27955C30.9149 2.41559 36.6032 5.31633 40.5046 9.82281C38.8604 10.0544 37.1604 10.2505 35.4214 10.4099C34.1387 8.84509 32.6532 7.43139 30.9866 6.21245C30.4828 5.84385 29.7795 5.95828 29.4153 6.4669C29.0508 6.97566 29.1637 7.6867 29.6671 8.05487C30.7295 8.83201 31.7106 9.69629 32.6038 10.6341C29.8162 10.8224 26.9534 10.9189 24.0777 10.9189C18.3888 10.9189 12.7532 10.5415 7.65029 9.82295C11.7573 5.08178 17.8341 2.13768 24.5386 2.27955ZM6.06419 11.8873C11.5991 12.7424 17.8099 13.1934 24.0777 13.1934C27.5716 13.1934 31.0495 13.0531 34.4023 12.7807C36.6149 15.7913 38.0453 19.3386 38.5293 23.0894C33.9843 23.6396 29.102 23.9242 24.0777 23.9242C16.2532 23.9242 8.77615 23.2344 2.37998 21.9257C2.77932 18.2242 4.08522 14.8028 6.06419 11.8873ZM54.0169 40.5391H53.7596V34.8029C53.7596 32.7767 52.1284 31.1282 50.1232 31.1282C49.1504 31.1282 48.2657 31.5161 47.6124 32.1472C46.9592 31.5162 46.0743 31.1282 45.1013 31.1282C43.0962 31.1282 41.4649 32.7767 41.4649 34.8029V40.5391H22.2894V34.8029C22.2894 32.7767 20.6581 31.1282 18.6531 31.1282C17.6802 31.1282 16.7953 31.5162 16.1419 32.1474C15.4887 31.5164 14.6038 31.1282 13.6309 31.1282C11.626 31.1282 9.99484 32.7767 9.99484 34.8029V40.5391H9.73715C7.541 40.5391 5.75417 42.3447 5.75417 44.5641C5.75417 46.7836 7.541 48.5893 9.73715 48.5893H9.99484V54.3253C9.99484 56.3515 11.626 58 13.6309 58C14.6038 58 15.4887 57.6119 16.1419 56.9808C16.7953 57.6118 17.6802 58 18.6531 58C20.6581 58 22.2894 56.3515 22.2894 54.3253V48.5893H41.4652V54.3253C41.4652 56.3515 43.0965 58 45.1016 58C46.0746 58 46.9595 57.6121 47.6127 56.9809C48.2659 57.6119 49.1507 58 50.1235 58C52.1286 58 53.7599 56.3515 53.7599 54.3253V48.5893H54.0172C56.2133 48.5893 58 46.7836 58 44.5641C58 42.3447 56.2132 40.5391 54.0169 40.5391ZM9.99498 46.315H9.73729C8.78206 46.315 8.0049 45.5296 8.0049 44.5643C8.0049 43.5989 8.78206 42.8137 9.73729 42.8137H9.99498V46.315ZM15.0167 54.3254C15.0167 55.0976 14.3952 55.7257 13.6311 55.7257C12.8672 55.7257 12.2456 55.0976 12.2456 54.3254V34.803C12.2456 34.0309 12.8672 33.4027 13.6311 33.4027C14.3952 33.4027 15.0167 34.0309 15.0167 34.803V54.3254ZM20.0388 54.3254C20.0388 55.0976 19.4172 55.7257 18.6531 55.7257C17.8889 55.7257 17.2672 55.0976 17.2672 54.3254V34.803C17.2672 34.0309 17.8889 33.4027 18.6531 33.4027C19.4172 33.4027 20.0388 34.0309 20.0388 34.803V54.3254ZM41.4652 46.315H22.2894V42.8136H41.4652V46.315ZM46.4874 54.3254C46.4874 55.0976 45.8657 55.7257 45.1015 55.7257C44.3372 55.7257 43.7157 55.0976 43.7157 54.3254V34.803C43.7157 34.0309 44.3372 33.4027 45.1015 33.4027C45.8657 33.4027 46.4874 34.0309 46.4874 34.803V54.3254ZM51.509 54.3254C51.509 55.0976 50.8874 55.7257 50.1232 55.7257C49.3593 55.7257 48.7378 55.0976 48.7378 54.3254V34.803C48.7378 34.0309 49.3593 33.4027 50.1232 33.4027C50.8874 33.4027 51.509 34.0309 51.509 34.803V54.3254ZM54.0169 46.315H53.7596V42.8136H54.0169C54.9721 42.8136 55.7491 43.5988 55.7491 44.5641C55.7491 45.5295 54.9721 46.315 54.0169 46.315Z" fill="#3BC3FE"/>
</svg>
